<?xml version="1.0" encoding="UTF-8" standalone="no"?>
<!-- Created with Inkscape (http://www.inkscape.org/) -->

<svg
   width="135.20207mm"
   height="135.22926mm"
   viewBox="0 0 135.20207 135.22926"
   version="1.1"
   id="svg7442"
   xml:space="preserve"
   inkscape:version="1.2.1 (9c6d41e410, 2022-07-14)"
   sodipodi:docname="LinkedIn.svg"
   xmlns:inkscape="http://www.inkscape.org/namespaces/inkscape"
   xmlns:sodipodi="http://sodipodi.sourceforge.net/DTD/sodipodi-0.dtd"
   xmlns="http://www.w3.org/2000/svg"
   xmlns:svg="http://www.w3.org/2000/svg"><sodipodi:namedview
     id="namedview7444"
     pagecolor="#ffffff"
     bordercolor="#666666"
     borderopacity="1.0"
     inkscape:showpageshadow="2"
     inkscape:pageopacity="0.0"
     inkscape:pagecheckerboard="0"
     inkscape:deskcolor="#d1d1d1"
     inkscape:document-units="mm"
     showgrid="false"
     inkscape:zoom="0.91579686"
     inkscape:cx="125.02773"
     inkscape:cy="414.93918"
     inkscape:window-width="2560"
     inkscape:window-height="1387"
     inkscape:window-x="-8"
     inkscape:window-y="2152"
     inkscape:window-maximized="1"
     inkscape:current-layer="layer1" /><defs
     id="defs7439" /><g
     inkscape:label="Layer 1"
     inkscape:groupmode="layer"
     id="layer1"
     transform="translate(-15.437743,-38.718029)"><path
       style="fill:#0077b7;fill-opacity:1;stroke-width:1"
       d="m 26.285663,173.86747 c -4.65498,-0.44533 -8.68298,-3.78944 -10.35977,-8.60083 -0.46869,-1.34486 -0.48815,-3.69508 -0.48815,-58.94757 0,-55.2525 0.0195,-57.602721 0.48815,-58.947571 1.41976,-4.073877 4.09144,-6.745558 8.16532,-8.165322 1.34485,-0.468686 3.69507,-0.488148 58.94757,-0.488148 55.252487,0 57.602717,0.01946 58.947567,0.488148 4.07387,1.419764 6.74555,4.091445 8.16532,8.165322 0.46868,1.34485 0.48815,3.695071 0.48815,58.947571 0,55.25249 -0.0195,57.60271 -0.48815,58.94757 -1.39442,4.00116 -3.9188,6.56956 -8.01604,8.15582 -1.24323,0.48132 -3.14722,0.49844 -58.038517,0.52195 -31.21422,0.0134 -57.22937,-0.0212 -57.81145,-0.0769 z m 29.41594,-15.312 c 0.4106,-0.30139 0.95473,-0.95623 1.20916,-1.45521 0.43295,-0.84907 0.46264,-2.98164 0.46303,-33.26105 4.4e-4,-35.075121 0.0734,-33.319481 -1.44168,-34.718061 l -0.71653,-0.66146 -8.83614,-0.0763 c -9.79441,-0.0845 -9.95746,-0.0606 -10.97637,1.61046 -0.50492,0.8281 -0.5165,1.58309 -0.51747,33.746851 -0.001,36.66581 -0.15193,33.77794 1.82469,34.93617 0.92311,0.54091 1.21877,0.55608 9.5986,0.49232 8.27347,-0.063 8.67834,-0.0894 9.39271,-0.61376 z m 32.28123,0.16426 c 1.59799,-0.97436 1.52575,-0.0873 1.68186,-20.65066 l 0.14362,-18.91771 0.67961,-2.27279 c 2.307,-7.71518 7.13398,-11.21926 13.845007,-10.05059 3.50184,0.60982 5.80057,2.37864 7.41909,5.7088 1.77984,3.66209 1.78156,3.68443 1.95469,25.31282 l 0.15602,19.492 0.62145,0.66121 c 1.14605,1.21937 1.50875,1.2579 11.08258,1.17697 l 9.03167,-0.0763 0.8167,-0.78276 c 0.44919,-0.43052 0.944,-1.20765 1.09959,-1.72695 0.3955,-1.32007 0.15415,-39.91139 -0.27223,-43.52779 -1.07728,-9.1372 -3.45097,-15.097191 -7.75423,-19.469751 -2.66103,-2.70389 -6.52759,-4.75159 -10.7826,-5.71038 -2.51068,-0.56574 -9.30775,-0.76092 -12.26042,-0.35207 -2.99305,0.41444 -7.035897,1.72132 -9.062767,2.92958 -1.78744,1.06554 -4.28536,3.29383 -5.71456,5.09774 l -1.01455,1.28053 v -2.94732 c 0,-3.26233 -0.25721,-4.09045 -1.5582,-5.01684 -0.74485,-0.53038 -1.08569,-0.55003 -9.54214,-0.55003 -9.68898,0 -9.87175,0.028 -10.87079,1.66649 -0.5049,0.82807 -0.5165,1.58237 -0.51746,33.659511 -10e-4,31.2743 0.0217,32.85472 0.48247,33.71393 0.9758,1.81948 1.26174,1.86852 10.88949,1.86741 8.05193,-0.001 8.6571,-0.0339 9.4461,-0.51501 z M 49.039823,82.1068 c 2.85859,-0.60283 5.01683,-1.79301 7.15179,-3.94392 2.09727,-2.11293 3.35798,-4.28107 3.95019,-6.79344 1.20312,-5.1041 -0.33531,-10.28679 -4.11073,-13.848332 -5.82708,-5.496975 -14.52616,-5.447335 -20.08812,0.114628 -2.88927,2.889262 -4.31568,6.299815 -4.31568,10.318754 0,5.61122 3.05876,10.51975 8.05694,12.92931 3.34167,1.610979 5.91852,1.947829 9.35561,1.223 z"
       id="path7938" /></g></svg>
