<?xml version="1.0" encoding="UTF-8" standalone="no"?>
<!-- Created with Inkscape (http://www.inkscape.org/) -->

<svg
   width="50.863621mm"
   height="67.995232mm"
   viewBox="0 0 50.863621 67.995232"
   version="1.1"
   id="svg5"
   xml:space="preserve"
   inkscape:version="1.2.1 (9c6d41e410, 2022-07-14)"
   sodipodi:docname="PDF-icon.svg"
   xmlns:inkscape="http://www.inkscape.org/namespaces/inkscape"
   xmlns:sodipodi="http://sodipodi.sourceforge.net/DTD/sodipodi-0.dtd"
   xmlns="http://www.w3.org/2000/svg"
   xmlns:svg="http://www.w3.org/2000/svg"><sodipodi:namedview
     id="namedview7"
     pagecolor="#ffffff"
     bordercolor="#666666"
     borderopacity="1.0"
     inkscape:showpageshadow="2"
     inkscape:pageopacity="0.0"
     inkscape:pagecheckerboard="0"
     inkscape:deskcolor="#d1d1d1"
     inkscape:document-units="mm"
     showgrid="false"
     inkscape:zoom="1.8315937"
     inkscape:cx="34.669261"
     inkscape:cy="215.65918"
     inkscape:window-width="2560"
     inkscape:window-height="1387"
     inkscape:window-x="-8"
     inkscape:window-y="2152"
     inkscape:window-maximized="1"
     inkscape:current-layer="layer1" /><defs
     id="defs2" /><g
     inkscape:label="Layer 1"
     inkscape:groupmode="layer"
     id="layer1"
     transform="translate(-85.50982,-24.456131)"><rect
       style="fill:#db4b4b;fill-opacity:1;stroke:none;stroke-width:1.265;stroke-linecap:round;stroke-linejoin:round;stroke-dasharray:none;stop-color:#000000"
       id="rect1121"
       width="48.723305"
       height="20.643217"
       x="86.56813"
       y="70.837761"
       ry="0.86823493" /><path
       id="path1023-2"
       style="color:#000000;-inkscape-font-specification:Montserrat;fill:#000000;stroke-width:1.265;stroke-linejoin:round"
       d="m 87.50377,24.456131 -0.64455,0.454137 c -0.35462,0.249774 -0.80325,0.754503 -0.99697,1.121446 l -0.35243,0.667013 v 31.718032 c 0,31.668113 5.6e-4,31.719183 0.31045,32.359323 0.35011,0.72322 1.16408,1.41296 1.8674,1.58268 0.25934,0.0626 10.8701,0.10311 23.57964,0.0902 l 23.10834,-0.0236 0.65785,-0.47661 c 0.36185,-0.26213 0.81153,-0.76656 0.99905,-1.12115 l 0.34089,-0.64484 -0.003,-25.59694 c -0.003,-24.671317 -0.0134,-25.619137 -0.2859,-26.202754 -0.3965,-0.8492 -13.23538,-13.630581 -13.86478,-13.802686 -0.24977,-0.0683 -8.16295,-0.124178 -17.58479,-0.124178 z m 33.88286,1.4381 v 5.68292 c 0,5.288142 0.0203,5.72174 0.28827,6.244382 0.34483,0.672397 0.83591,1.152331 1.45259,1.419178 0.33365,0.144372 1.96025,0.217304 6.13085,0.274965 l 5.67671,0.07835 v 15.289275 15.289271 l -23.93,0.0384 c -13.1615,0.0211 -23.97562,-0.007 -24.03141,-0.063 -0.17721,-0.17721 -0.11803,-42.446035 0.0603,-43.088303 0.10739,-0.386739 0.31813,-0.672071 0.64248,-0.869838 0.47032,-0.286776 0.9083,-0.294525 17.09636,-0.295071 z m 1.51379,1.137116 5.37395,5.372179 c 2.95568,2.954791 5.37396,5.424012 5.37396,5.486896 0,0.15942 -9.53831,0.12508 -9.93691,-0.03578 -0.79457,-0.320649 -0.811,-0.438331 -0.811,-5.824542 z m -13.2492,9.460002 c -1.13104,-0.03586 -2.21449,0.69119 -2.78514,1.981232 -0.86051,1.945318 -0.42191,4.786737 1.25302,8.118288 l 0.7016,1.395524 -0.98603,2.237571 c -1.15295,2.616284 -2.03196,4.281139 -2.34637,4.444096 -0.12296,0.06372 -1.2794,0.623628 -2.5699,1.244441 -2.53014,1.21716 -3.78647,2.066788 -4.9683,3.359904 -1.09678,1.200047 -1.4653,2.037837 -1.4653,3.331227 0,1.27018 0.2481,1.92713 0.88698,2.34844 0.88289,0.58223 2.22554,0.20207 3.57692,-1.01294 1.3529,-1.21637 3.51671,-4.13344 5.06942,-6.834226 0.48974,-0.851852 0.85279,-1.309695 1.12086,-1.412969 0.80416,-0.309799 4.22096,-1.201562 5.50404,-1.436622 l 1.32309,-0.242443 0.56914,0.514157 c 1.49589,1.35134 3.90646,2.767199 5.79173,3.401887 1.22541,0.412539 3.4588,0.397547 4.02839,-0.0272 0.71298,-0.531672 1.01273,-1.064198 1.0842,-1.925943 0.14521,-1.75113 -1.05059,-2.938654 -3.55771,-3.533161 -0.84315,-0.19994 -1.60802,-0.228553 -4.31134,-0.160545 l -3.28658,0.08279 -1.47299,-1.654525 c -0.81014,-0.910018 -1.6644,-1.949032 -1.89844,-2.308825 l -0.42546,-0.6543 0.38406,-1.124699 c 0.5673,-1.661035 1.08899,-3.822889 1.28909,-5.342021 0.29983,-2.276292 -0.19493,-3.887501 -1.37926,-4.491697 -0.37033,-0.18893 -0.75271,-0.285482 -1.12972,-0.297437 z m 0.0172,1.475354 c 1.24229,0 1.42653,2.301536 0.47453,5.930093 -0.27136,1.034284 -0.56247,1.903416 -0.6469,1.93156 -0.0844,0.02814 -0.40196,-0.579558 -0.70575,-1.350584 -1.4246,-3.615651 -1.03425,-6.511069 0.87812,-6.511069 z m 0.1227,11.507166 0.36455,0.434032 c 0.20046,0.238783 0.80004,0.932287 1.33224,1.54099 0.5322,0.608702 0.96741,1.163681 0.96741,1.233503 0,0.06982 -0.52793,0.2426 -1.17319,0.383769 -0.64524,0.141169 -1.64844,0.386313 -2.22958,0.544905 -0.58113,0.158594 -1.07501,0.288271 -1.0975,0.288271 -0.13168,0 0.0183,-0.429496 0.4636,-1.328114 0.27745,-0.559916 0.69967,-1.485992 0.93843,-2.057808 z m 8.2392,4.161443 c 1.29614,-0.01784 3.00048,0.109683 3.7419,0.313402 1.53184,0.420897 2.1879,0.951638 2.1879,1.770129 0,0.340591 -0.10253,0.64477 -0.26491,0.785869 -0.50376,0.437747 -1.49137,0.44398 -2.83836,0.01803 -1.01155,-0.319874 -3.15045,-1.434115 -4.08723,-2.129358 l -0.7569,-0.561758 0.90828,-0.12743 c 0.2906,-0.0408 0.67728,-0.06294 1.10932,-0.06889 z m -13.70599,3.179846 c 0.0252,-0.0052 0.0417,-0.005 0.0479,0.0012 0.0935,0.09348 -1.35058,2.346546 -2.43715,3.802504 -0.80603,1.08005 -2.09747,2.40566 -2.79696,2.87118 -0.47411,0.31552 -1.00409,0.31989 -1.12322,0.009 -0.18638,-0.48572 -0.0833,-1.49927 0.21524,-2.11605 0.33034,-0.68239 1.48742,-1.885778 2.53678,-2.638492 0.78272,-0.561445 3.17917,-1.852325 3.55741,-1.929785 z M 86.94797,71.837742 h 23.99356 23.99357 v 9.01385 c 0,8.42933 -0.0174,9.04085 -0.2726,9.43014 -0.15007,0.22896 -0.4442,0.48133 -0.65342,0.56087 -0.48897,0.18594 -45.71985,0.1778 -46.18181,-0.008 -0.18248,-0.0735 -0.45496,-0.3214 -0.60552,-0.55111 -0.25634,-0.39109 -0.27378,-0.99124 -0.27378,-9.43163 z m 13.74651,5.9301 a 0.36191533,0.36191533 0 0 0 -0.36189,0.36218 v 7.1228 a 0.36191533,0.36191533 0 0 0 0.36189,0.36189 h 0.75217 a 0.36191533,0.36191533 0 0 0 0.36189,-0.36189 v -1.88633 h 1.55104 c 0.6431,0 1.21493,-0.10481 1.70656,-0.32759 0.48723,-0.22077 0.88174,-0.54717 1.1519,-0.9677 0.27848,-0.42967 0.41481,-0.94051 0.41481,-1.4996 0,-0.56908 -0.13561,-1.08136 -0.41481,-1.5064 -0.26944,-0.42698 -0.66358,-0.75531 -1.1519,-0.96977 -3.1e-4,-1.4e-4 -8.6e-4,1.4e-4 -0.001,0 -0.4914,-0.22248 -1.06268,-0.32759 -1.70538,-0.32759 z m 7.2044,0 a 0.36191533,0.36191533 0 0 0 -0.36219,0.36218 v 7.1228 a 0.36191533,0.36191533 0 0 0 0.36219,0.36189 h 2.90074 c 0.80721,0 1.53403,-0.15925 2.16247,-0.48844 a 0.36191533,0.36191533 0 0 0 10e-4,-0.001 c 0.62968,-0.33336 1.13267,-0.80461 1.48511,-1.397 0.35419,-0.59535 0.52835,-1.28329 0.52835,-2.03712 0,-0.75381 -0.17416,-1.44176 -0.52835,-2.03711 -0.35194,-0.59155 -0.85533,-1.05924 -1.48422,-1.38577 -5.7e-4,-3.2e-4 -0.002,3.3e-4 -0.002,0 -0.62847,-0.33623 -1.35497,-0.50055 -2.16247,-0.50055 z m 8.40537,0 a 0.36191533,0.36191533 0 0 0 -0.36189,0.36218 v 7.1228 a 0.36191533,0.36191533 0 0 0 0.36189,0.36189 h 0.75335 a 0.36191533,0.36191533 0 0 0 0.36189,-0.36189 v -2.65978 h 3.32235 a 0.36191533,0.36191533 0 0 0 0.36189,-0.36189 v -0.65164 a 0.36191533,0.36191533 0 0 0 -0.36189,-0.36189 h -3.32235 v -2.07525 h 3.77028 a 0.36191533,0.36191533 0 0 0 0.36101,-0.36189 v -0.65046 a 0.36191533,0.36191533 0 0 0 -0.36101,-0.36218 z m -14.49571,1.37453 h 1.53093 c 0.65951,0 1.10519,0.1453 1.38341,0.38229 a 0.36191533,0.36191533 0 0 0 0.002,0.002 c 0.28998,0.24253 0.43018,0.55368 0.43018,1.04458 0,0.48253 -0.1388,0.7916 -0.429,1.03481 -2.1e-4,1.7e-4 -9.7e-4,-1.7e-4 -0.001,0 -0.27778,0.23114 -0.72561,0.37431 -1.38577,0.37431 h -1.53094 z m 7.20557,0 h 1.74441 c 0.58294,0 1.0654,0.115 1.46589,0.33292 a 0.36191533,0.36191533 0 0 0 0.005,0.003 c 0.4143,0.21615 0.72131,0.50335 0.94523,0.88048 0.2219,0.37372 0.33646,0.80923 0.33646,1.33195 0,0.51532 -0.11411,0.95081 -0.33764,1.33314 -0.22428,0.37718 -0.53219,0.66926 -0.9476,0.89201 -0.4007,0.21173 -0.88368,0.32406 -1.46708,0.32406 h -1.7444 z" /></g></svg>
